<svg width="40" height="40" viewBox="0 0 40 40" fill="none" xmlns="http://www.w3.org/2000/svg">
<g id="akar-icons:shipping-box-01">
<g id="Group">
<path id="Vector" d="M18.3817 4.23333C18.8767 3.95839 19.4337 3.81412 20 3.81412C20.5663 3.81412 21.1233 3.95839 21.6183 4.23333L34.1433 11.19C34.403 11.3344 34.6194 11.5456 34.77 11.8017C34.9206 12.0578 35 12.3495 35 12.6467V26.3717C35.0002 26.9664 34.8412 27.5503 34.5397 28.0628C34.2381 28.5754 33.8049 28.9979 33.285 29.2867L21.6183 35.7667C21.1233 36.0416 20.5663 36.1859 20 36.1859C19.4337 36.1859 18.8767 36.0416 18.3817 35.7667L6.715 29.285C6.19559 28.9965 5.76272 28.5745 5.46119 28.0626C5.15966 27.5507 5.00044 26.9675 5 26.3733V12.6467C4.99999 12.3495 5.0794 12.0578 5.23003 11.8017C5.38065 11.5456 5.59699 11.3344 5.85667 11.19L18.3817 4.23333Z" stroke="#5863F8" stroke-width="2" stroke-linecap="round" stroke-linejoin="round"/>
<path id="Vector_2" d="M5 11.6667L20 20M20 20L35 11.6667M20 20V36.6667" stroke="#5863F8" stroke-width="2" stroke-linejoin="round"/>
<path id="Vector_3" d="M12.5 15.8333L27.5 7.5M10 20.5467L15 23.3333" stroke="#5863F8" stroke-width="2" stroke-linecap="round" stroke-linejoin="round"/>
</g>
</g>
</svg>
