<svg width="42" height="42" viewBox="0 0 42 42" fill="none" xmlns="http://www.w3.org/2000/svg">
<g id="ep:arrow-up">
<path id="Vector" d="M21.9444 27.7051L35.4296 13.5521C35.6547 13.3159 35.7803 13.0022 35.7803 12.6759C35.7803 12.3497 35.6547 12.0359 35.4296 11.7998L35.4143 11.7845C35.3052 11.6696 35.1738 11.5782 35.0282 11.5157C34.8826 11.4532 34.7258 11.4209 34.5674 11.4209C34.4089 11.4209 34.2521 11.4532 34.1065 11.5157C33.9609 11.5782 33.8296 11.6696 33.7204 11.7845L21.0225 25.1122L8.32973 11.7845C8.2206 11.6696 8.08924 11.5782 7.94363 11.5157C7.79803 11.4532 7.64124 11.4209 7.48278 11.4209C7.32433 11.4209 7.16754 11.4532 7.02193 11.5157C6.87633 11.5782 6.74497 11.6696 6.63583 11.7845L6.6206 11.7998C6.39548 12.0359 6.26989 12.3497 6.26989 12.6759C6.26989 13.0022 6.39548 13.3159 6.6206 13.5521L20.1058 27.7051C20.2243 27.8296 20.367 27.9287 20.525 27.9964C20.683 28.0641 20.8532 28.099 21.0251 28.099C21.197 28.099 21.3671 28.0641 21.5252 27.9964C21.6832 27.9287 21.8258 27.8296 21.9444 27.7051Z" fill="black"/>
</g>
</svg>
