<svg width="40" height="40" viewBox="0 0 40 40" fill="none" xmlns="http://www.w3.org/2000/svg">
<g id="material-symbols:work-history-outline">
<path id="Vector" d="M6.66671 35C5.75004 35 4.9656 34.6739 4.31337 34.0217C3.66115 33.3694 3.33449 32.5844 3.33337 31.6667V13.3333C3.33337 12.4167 3.66004 11.6322 4.31337 10.98C4.96671 10.3278 5.75115 10.0011 6.66671 10H13.3334V6.66667C13.3334 5.75 13.66 4.96556 14.3134 4.31334C14.9667 3.66111 15.7512 3.33445 16.6667 3.33334H23.3334C24.25 3.33334 25.035 3.66 25.6884 4.31334C26.3417 4.96667 26.6678 5.75111 26.6667 6.66667V10H33.3334C34.25 10 35.035 10.3267 35.6884 10.98C36.3417 11.6333 36.6678 12.4178 36.6667 13.3333V20.4583C36.1667 20.0972 35.6389 19.785 35.0834 19.5217C34.5278 19.2583 33.9445 19.0289 33.3334 18.8333V13.3333H6.66671V31.6667H18.4584C18.5417 32.25 18.6667 32.8194 18.8334 33.375C19 33.9306 19.2084 34.4722 19.4584 35H6.66671ZM16.6667 10H23.3334V6.66667H16.6667V10ZM30 38.3333C27.6945 38.3333 25.7295 37.5206 24.105 35.895C22.4806 34.2694 21.6678 32.3044 21.6667 30C21.6656 27.6956 22.4784 25.7306 24.105 24.105C25.7317 22.4794 27.6967 21.6667 30 21.6667C32.3034 21.6667 34.2689 22.4794 35.8967 24.105C37.5245 25.7306 38.3367 27.6956 38.3334 30C38.33 32.3044 37.5173 34.27 35.895 35.8967C34.2728 37.5233 32.3078 38.3356 30 38.3333ZM30.8334 29.6667V25H29.1667V30.3333L32.75 33.9167L33.9167 32.75L30.8334 29.6667Z" fill="#5863F8"/>
</g>
</svg>
